<?xml version="1.0" encoding="utf-8"?>
<!-- Generator: Adobe Illustrator 22.0.1, SVG Export Plug-In . SVG Version: 6.00 Build 0)  -->
<svg version="1.1" id="Livello_1" xmlns="http://www.w3.org/2000/svg" xmlns:xlink="http://www.w3.org/1999/xlink" x="0px" y="0px"
	 viewBox="0 0 38 52" style="enable-background:new 0 0 38 52;" xml:space="preserve">
<style type="text/css">
	.st0{filter:url(#filter-1);}
	.st1{fill:#111111;}
	.st2{fill:#CFD900;}
	.st3{fill:#FFFFFF;}
</style>
<filter  filterUnits="objectBoundingBox" height="138.1%" id="filter-1" width="119.8%" x="-9.7%" y="-10.8%">
	<feOffset  dx="0" dy="10" in="SourceAlpha" result="shadowOffsetOuter1"></feOffset>
	
		<feColorMatrix  in="shadowOffsetOuter1" result="shadowMatrixOuter1" type="matrix" values="0 0 0 0 0   0 0 0 0 0   0 0 0 0 0  0 0 0 0.4 0">
		</feColorMatrix>
	<feMerge>
		<feMergeNode  in="shadowMatrixOuter1"></feMergeNode>
		<feMergeNode  in="SourceGraphic"></feMergeNode>
	</feMerge>
</filter>
<title>ship-04-geert-icon@3x</title>
<desc>Created with Sketch.</desc>
<g id="Page-1">
	<g id="detailed-stats-01" transform="translate(-118.000000, -268.000000)">
		<g id="Group-5" transform="translate(50.000000, 182.000000)">
			<g id="ship-04-geert-icon" transform="translate(64.715536, 81.641138)" class="st0">
				
					<g id="ship-04-geert_1_" transform="translate(25.377411, 27.872202) rotate(-71.000000) translate(-25.377411, -27.872202) translate(2.289706, 9.054915)">
					<polygon id="Fill-60_1_" class="st1" points="40.5,0 46.2,17.3 39.2,19.5 33.6,2.2 					"/>
					<polygon id="Fill-62_1_" class="st2" points="16.9,23.7 21,35.8 10.8,37.6 7,26.6 					"/>
					<polygon id="Fill-64_1_" class="st2" points="8.7,1.4 12.6,13.6 3.4,16.7 0,6 					"/>
					<polygon id="Fill-66_1_" class="st3" points="5.6,10.2 7.7,16.4 27,11 29.3,17.8 10.4,24.5 12.5,30.7 29.4,26.1 26.8,18.4 
						24.6,11.9 22,4.2 					"/>
					<polygon id="Fill-68_1_" class="st3" points="33.3,1.4 39.2,19.5 23.4,23.7 18.2,7.6 					"/>
					<polygon id="Fill-70_1_" points="31.1,5.7 34.5,17 31,18.2 27.5,6.9 					"/>
				</g>
			</g>
		</g>
	</g>
</g>
</svg>
